<?xml version="1.0" encoding="UTF-8" standalone="no"?>
<svg xmlns="http://www.w3.org/2000/svg" viewBox="0 0 1000 1000" width="1000" height="1000">
  <defs>
    <linearGradient id="blue-gradient" x1="0%" y1="0%" x2="0%" y2="100%">
      <stop offset="0%" style="stop-color:#0078FF;stop-opacity:1" />
      <stop offset="100%" style="stop-color:#00205B;stop-opacity:1" />
    </linearGradient>
  </defs>
  <path d="M50,200 C50,150 100,100 150,100 C200,100 250,150 300,150 C350,150 400,100 450,100 C500,100 550,150 600,150 C650,150 700,100 750,100 C800,100 850,150 900,150 C950,150 950,200 950,250 L950,750 C950,800 900,850 850,850 C800,850 750,800 700,800 C650,800 600,850 550,850 C500,850 450,800 400,800 C350,800 300,850 250,850 C200,850 150,800 100,800 C50,800 50,750 50,700 Z" fill="url(#blue-gradient)"/>
  <text x="500" y="500" font-family="Arial, sans-serif" font-size="180" font-weight="bold" text-anchor="middle" fill="white">Rent a Ride</text>
</svg>
