<?xml version="1.0" encoding="UTF-8" standalone="no"?>
<svg width="800" height="400" viewBox="0 0 800 400" xmlns="http://www.w3.org/2000/svg">
  <rect width="100%" height="100%" fill="#f1f5f9"/>
  <path d="M150,250 C150,250 170,150 300,150 C430,150 450,180 500,180 C550,180 600,170 650,200 C700,230 700,250 700,250 L150,250 Z" fill="#6366f1" fill-opacity="0.2"/>
  <path d="M200,250 L250,250 C250,250 250,230 270,230 C290,230 290,250 290,250 L500,250 C500,250 500,230 520,230 C540,230 540,250 540,250 L600,250 L600,220 C600,220 550,200 500,200 C450,200 400,200 350,190 C300,180 250,180 200,200 L200,250 Z" fill="#6366f1" fill-opacity="0.3"/>
  <circle cx="270" cy="250" r="30" fill="#6366f1" fill-opacity="0.4"/>
  <circle cx="520" cy="250" r="30" fill="#6366f1" fill-opacity="0.4"/>
  <text x="400" y="100" font-family="Arial" font-size="24" text-anchor="middle" fill="#6366f1">Toyota Camry</text>
  <text x="400" y="330" font-family="Arial" font-size="18" text-anchor="middle" fill="#64748b">Sedan • 5 Seats • Automatic</text>
</svg>
